External Loads File
version=1
nRows=54
nColumns=13
Range=5.000000e-03-10 seconds
endheader
time 	forceRightX 	forceRightY 	forceRightZ 	pointRightX 	pointRightY 	pointRightZ 	forceLeftX 	forceLeftY 	forceLeftZ 	pointLeftX 	pointLeftY 	pointLeftZ 		
2.505000 82.261377 36.549160 -0.000000 0.244272 0.133904 -0.162905 27.163421 235.822451 -0.000000 0.316799 0.471866 -0.413971
2.510000 77.077136 -9.722251 -0.000000 0.237507 0.135936 -0.163112 31.942769 263.795342 -0.000000 0.321148 0.471021 -0.414355
2.515000 72.206935 -52.805121 -0.000000 0.230909 0.138456 -0.163339 36.223880 294.690196 -0.000000 0.325411 0.469758 -0.414833
2.520000 67.396452 -93.158596 -0.000000 0.224098 0.141299 -0.163647 40.310876 328.427957 -0.000000 0.329763 0.468145 -0.415464
2.525000 62.534350 -130.553859 -0.000000 0.217341 0.144603 -0.163900 43.514305 364.610515 -0.000000 0.333830 0.466258 -0.416000
2.530000 57.182566 -164.564026 -0.000000 0.210501 0.148284 -0.164442 46.012534 402.440216 -0.000000 0.337921 0.464003 -0.416406
2.535000 51.136352 -194.364308 -0.000000 0.204083 0.152258 -0.164322 47.151970 441.117654 -0.000000 0.342137 0.461439 -0.416813
2.540000 44.249421 -219.145144 -0.000000 0.197844 0.156205 -0.164923 46.538143 479.846678 -0.000000 0.346245 0.458552 -0.417139
2.545000 36.852202 -238.342317 -0.000000 0.192305 0.159967 -0.165314 43.363224 517.951051 -0.000000 0.350317 0.455372 -0.417417
2.550000 29.112423 -252.035429 -0.000000 0.187159 0.163527 -0.165667 37.860084 554.710499 -0.000000 0.354328 0.451890 -0.417645
2.555000 21.274742 -260.900500 -0.000000 0.182305 0.167308 -0.165863 30.611387 589.463294 -0.000000 0.358398 0.448234 -0.417732
2.560000 13.820882 -266.007854 -0.000000 0.177599 0.171301 -0.166210 21.896059 621.695459 -0.000000 0.362355 0.444228 -0.417743
2.565000 7.022861 -268.538697 -0.000000 0.172927 0.175548 -0.166492 12.295674 651.034037 -0.000000 0.366317 0.439928 -0.417760
2.570000 1.057678 -269.454940 -0.000000 0.168294 0.180122 -0.166631 2.143417 677.309369 -0.000000 0.370153 0.435208 -0.417766
2.575000 -4.264449 -269.312738 -0.000000 0.163793 0.185009 -0.166619 -7.860143 700.530242 -0.000000 0.374200 0.430160 -0.417968
2.580000 -8.693407 -268.240684 -0.000000 0.159494 0.190109 -0.166433 -18.533634 720.751550 -0.000000 0.377851 0.424867 -0.418203
2.585000 -12.581986 -266.053314 -0.000000 0.155456 0.195314 -0.166422 -29.269008 738.008454 -0.000000 0.381539 0.419510 -0.418039
2.590000 -16.020110 -262.471105 -0.000000 0.151681 0.200571 -0.166390 -40.020454 752.360039 -0.000000 0.384966 0.413972 -0.417890
2.595000 -19.267853 -257.318011 -0.000000 0.148226 0.205875 -0.166294 -50.008762 764.008993 -0.000000 0.388367 0.408127 -0.417714
2.600000 -22.299964 -250.658315 -0.000000 0.145054 0.211550 -0.166206 -59.021117 773.269383 -0.000000 0.391437 0.402068 -0.417709
2.605000 -24.918612 -242.766849 -0.000000 0.142037 0.217282 -0.166157 -67.236417 780.527353 -0.000000 0.394284 0.395837 -0.417755
2.610000 -27.268538 -233.956276 -0.000000 0.139159 0.223331 -0.166116 -73.693674 786.303823 -0.000000 0.397050 0.389346 -0.417553
2.615000 -28.959111 -224.552445 -0.000000 0.136516 0.229616 -0.166098 -79.286837 790.924750 -0.000000 0.399541 0.382796 -0.417523
2.620000 -30.078607 -214.724835 -0.000000 0.134254 0.236104 -0.166119 -83.560500 794.761195 -0.000000 0.401842 0.375956 -0.417499
2.625000 -30.507676 -204.568543 -0.000000 0.132100 0.242695 -0.166174 -86.919770 798.008032 -0.000000 0.403936 0.369109 -0.417492
2.630000 -30.288705 -194.114791 -0.000000 0.130200 0.249312 -0.166076 -89.189245 800.848300 -0.000000 0.405741 0.362045 -0.417433
2.635000 -29.477780 -183.410632 -0.000000 0.128699 0.256173 -0.166130 -90.043438 803.474873 -0.000000 0.407379 0.354896 -0.417360
2.640000 -28.058060 -172.571503 -0.000000 0.127423 0.263096 -0.166167 -89.450112 806.061066 -0.000000 0.408893 0.347585 -0.417058
2.645000 -25.956699 -161.790909 -0.000000 0.126391 0.270151 -0.166251 -87.807155 808.706586 -0.000000 0.409924 0.340214 -0.416903
2.650000 -23.316533 -151.274665 -0.000000 0.125715 0.277346 -0.166276 -84.743654 811.552539 -0.000000 0.410801 0.332694 -0.416894
2.655000 -20.106292 -141.255919 -0.000000 0.125242 0.284600 -0.166197 -81.099015 814.600399 -0.000000 0.411449 0.325227 -0.416769
2.660000 -16.681867 -131.852462 -0.000000 0.125072 0.292103 -0.166181 -75.834380 818.059692 -0.000000 0.411772 0.317559 -0.416716
2.665000 -12.926084 -123.137158 -0.000000 0.125213 0.299472 -0.166189 -70.841362 821.872337 -0.000000 0.411667 0.309980 -0.416749
2.670000 -9.231099 -115.011778 -0.000000 0.125615 0.306983 -0.166176 -64.844089 826.286833 -0.000000 0.411426 0.302298 -0.416537
2.675000 -5.598954 -107.389705 -0.000000 0.126423 0.314403 -0.166241 -58.945721 831.357413 -0.000000 0.410950 0.294606 -0.416951
2.680000 -2.215927 -100.209408 -0.000000 0.127608 0.321805 -0.166248 -52.925430 837.278266 -0.000000 0.410090 0.286859 -0.416663
2.685000 0.830301 -93.484235 -0.000000 0.129044 0.329240 -0.166199 -47.216078 844.211433 -0.000000 0.409019 0.279202 -0.416537
2.690000 3.389996 -87.274472 -0.000000 0.130851 0.336630 -0.166215 -41.493469 852.352682 -0.000000 0.407698 0.271441 -0.416435
2.695000 5.426417 -81.647452 -0.000000 0.133051 0.343992 -0.166241 -36.125393 861.825514 -0.000000 0.406058 0.263769 -0.416340
2.700000 6.886585 -76.650911 -0.000000 0.135499 0.351303 -0.166273 -31.036753 872.740356 -0.000000 0.404181 0.256111 -0.416220
2.705000 7.777228 -72.311752 -0.000000 0.138317 0.358444 -0.166135 -26.567150 885.166902 -0.000000 0.402031 0.248538 -0.416060
2.710000 7.999601 -68.656103 -0.000000 0.141616 0.365632 -0.166393 -21.525779 899.193891 -0.000000 0.399580 0.240966 -0.415963
2.715000 7.708404 -65.660137 -0.000000 0.145074 0.372548 -0.166464 -17.596965 914.763543 -0.000000 0.396886 0.233582 -0.415838
2.720000 6.806733 -63.302431 -0.000000 0.148998 0.379479 -0.166567 -12.853866 931.805173 -0.000000 0.393887 0.226276 -0.415680
2.725000 5.432163 -61.520847 -0.000000 0.153249 0.386103 -0.166618 -8.300336 950.096716 -0.000000 0.390616 0.219128 -0.415587
2.730000 3.587443 -60.262605 -0.000000 0.157834 0.392661 -0.166716 -2.916137 969.374133 -0.000000 0.387057 0.212144 -0.415456
2.735000 1.377450 -59.457310 -0.000000 0.162430 0.399051 -0.166952 2.573018 989.302695 -0.000000 0.383214 0.205355 -0.415364
2.740000 -1.253410 -59.032882 -0.000000 0.167807 0.405124 -0.166814 9.663885 1009.516264 -0.000000 0.379078 0.198782 -0.415259
2.745000 -4.221680 -58.908550 -0.000000 0.173007 0.411049 -0.167182 17.123079 1029.612472 -0.000000 0.374661 0.192386 -0.415137
2.750000 -7.607391 -58.989905 -0.000000 0.178566 0.416870 -0.167231 26.356461 1049.097386 -0.000000 0.370003 0.186155 -0.415056
2.755000 -11.369428 -59.179850 -0.000000 0.184553 0.422301 -0.167296 37.092110 1067.438207 -0.000000 0.365074 0.180155 -0.414985
2.760000 -15.672253 -59.336160 -0.000000 0.192259 0.427577 -0.166519 53.451539 1083.861075 -0.000000 0.359898 0.174507 -0.414909
2.765000 -19.754741 -59.559619 -0.000000 0.197200 0.432609 -0.167285 62.934440 1098.340004 -0.000000 0.354436 0.169063 -0.414870
2.770000 -24.234260 -59.555987 -0.000000 0.203768 0.437636 -0.167522 78.127211 1109.667338 -0.000000 0.348785 0.163884 -0.414823
